<svg width="48" height="52" viewBox="0 0 48 52" fill="none" xmlns="http://www.w3.org/2000/svg">
<path d="M24.6421 46.1656C37.3904 46.1656 47.7249 35.831 47.7249 23.0828C47.7249 10.3345 37.3904 0 24.6421 0C11.8938 0 1.55933 10.3345 1.55933 23.0828C1.55933 35.831 11.8938 46.1656 24.6421 46.1656Z" fill="#D8ECFE"/>
<path d="M47.7247 23.0832C47.7247 35.8314 37.3906 46.1655 24.6424 46.1655C17.8519 46.1655 11.7459 43.2331 7.52194 38.5661C11.6173 42.2718 17.0483 44.5279 23.0049 44.5279C35.7531 44.5279 46.0872 34.1938 46.0872 21.4456C46.0872 15.4859 43.8289 10.0529 40.1201 5.95746C44.7903 10.1814 47.7247 16.2895 47.7247 23.0832V23.0832Z" fill="#C4E2FF"/>
<path d="M24.6421 39.1742C33.5292 39.1742 40.7336 31.9698 40.7336 23.0828C40.7336 14.1957 33.5292 6.99127 24.6421 6.99127C15.755 6.99127 8.55063 14.1957 8.55063 23.0828C8.55063 31.9698 15.755 39.1742 24.6421 39.1742Z" fill="#B3DAFE"/>
<path d="M40.7336 23.0832C40.7336 31.97 33.5292 39.1744 24.6424 39.1744C19.781 39.1744 15.4243 37.0196 12.4742 33.6128C15.2968 36.0581 18.9784 37.5368 23.0048 37.5368C31.8917 37.5368 39.096 30.3324 39.096 21.4456C39.096 17.4191 37.6173 13.7376 35.1719 10.915C38.5787 13.8651 40.7336 18.2218 40.7336 23.0832V23.0832Z" fill="#8AC9FE"/>
<path d="M12.7151 51.9839L12.3724 51.9386C11.3588 51.8048 10.6457 50.8746 10.7797 49.861L13.9101 26.1626L17.9233 26.6927L14.7927 50.3911C14.6588 51.4046 13.7286 52.1177 12.7151 51.9839V51.9839Z" fill="#685E68"/>
<path d="M17.923 26.6927L14.7994 50.3383C14.6615 51.3812 13.7042 52.1148 12.6613 51.9769L12.4251 51.9455C12.0237 51.8922 11.6685 51.7187 11.3916 51.4647C12.1262 51.2808 12.7083 50.6642 12.8139 49.868L15.9103 26.4272L17.923 26.6927Z" fill="#554E56"/>
<path d="M18.2449 8.80215L14.2117 8.26932C13.9148 8.23012 13.6425 8.4389 13.6033 8.73574L12.3924 17.9023C12.2122 19.2662 12.8064 20.5748 13.8625 21.2962C14.2556 21.5648 14.4548 22.0395 14.3924 22.5115L13.9102 26.1626L17.9233 26.6927L18.4056 23.0416C18.4679 22.5696 18.7834 22.1629 19.2328 22.0056C20.44 21.5831 21.3536 20.4737 21.5337 19.1099L22.7446 9.94326C22.7838 9.64643 22.575 9.37408 22.2782 9.33488L18.2449 8.80215Z" fill="#E2DEE2"/>
<path d="M22.7447 9.94316L21.5335 19.1101C21.3537 20.4738 20.4394 21.5836 19.2324 22.0059C18.783 22.1626 18.4674 22.5692 18.4057 23.0415L17.923 26.6928L15.9071 26.4263L16.4202 22.4427C16.4819 21.9704 16.7975 21.5639 17.2469 21.4071C18.4539 20.9839 19.3682 19.8751 19.548 18.5114L20.7592 9.34452C20.7686 9.27141 20.7633 9.19931 20.7445 9.13239L22.2786 9.33508C22.5754 9.37367 22.7834 9.64643 22.7447 9.94316V9.94316Z" fill="#CBC4CC"/>
<path d="M17.4686 8.69966L16.3807 16.9343C16.3295 17.3283 15.992 17.6157 15.6053 17.6157C15.5708 17.6157 15.5363 17.6136 15.5018 17.6094C15.0724 17.5519 14.7704 17.1579 14.8267 16.7295L15.9146 8.49473V8.49371L17.4686 8.69966Z" fill="#B5ADB6"/>
<path d="M20.5744 9.11032L19.4865 17.345C19.4342 17.739 19.0978 18.0264 18.7111 18.0264C18.6766 18.0264 18.6421 18.0243 18.6076 18.0191C18.1782 17.9626 17.8762 17.5687 17.9325 17.1392L19.0204 8.90448L20.5744 9.11032Z" fill="#B5ADB6"/>
<path d="M36.8652 51.9514L36.5215 51.9881C35.505 52.0969 34.5928 51.361 34.484 50.3444L31.9409 26.5758L35.9659 26.1451L38.509 49.9138C38.6177 50.9304 37.8818 51.8426 36.8652 51.9514Z" fill="#685E68"/>
<path d="M36.8116 51.957L36.5754 51.982C36.1699 52.0249 35.7802 51.9382 35.4489 51.7543C36.125 51.4031 36.5515 50.6633 36.4657 49.8607L33.9515 26.3603L35.9662 26.145L38.5035 49.8607C38.6154 50.9067 37.8577 51.8452 36.8116 51.957V51.957Z" fill="#554E56"/>
<path d="M35.9658 26.1452L31.9408 26.5759L31.6292 23.6642C31.5776 23.1825 31.3431 22.739 30.9739 22.4254L30.1299 21.7084C29.6833 21.329 29.4381 20.7639 29.466 20.1786L30.1092 6.71214C30.1537 5.78194 30.8693 5.02295 31.7953 4.92384C32.8327 4.81285 33.7637 5.56381 33.8747 6.60124L35.9658 26.1452Z" fill="#E2DEE2"/>
<path d="M35.9662 26.1451L33.9545 26.3604L31.8635 6.82066C31.7914 6.15185 31.3796 5.60216 30.8174 5.32625C31.0902 5.10782 31.4266 4.9626 31.7956 4.92391C31.8635 4.9166 31.9315 4.91345 31.9983 4.91345C32.9523 4.91345 33.7706 5.63141 33.8751 6.60111L35.9662 26.1451Z" fill="#CBC4CC"/>
<path d="M42.9456 3.06205C42.5474 4.33315 41.513 6.64321 39.1013 7.54497C38.9044 7.61859 38.9044 7.90192 39.1013 7.97554C41.5131 8.8773 42.5475 11.1874 42.9456 12.4585C43.013 12.6734 43.3185 12.6734 43.386 12.4585C43.7842 11.1874 44.8186 8.8773 47.2303 7.97554C47.4272 7.90192 47.4272 7.61859 47.2303 7.54497C44.8185 6.64321 43.7841 4.33315 43.386 3.06205C43.3186 2.84707 43.0131 2.84707 42.9456 3.06205V3.06205Z" fill="#FDB441"/>
<path d="M47.2303 7.97567C44.8185 8.87713 43.7844 11.1871 43.3864 12.4584C43.3187 12.6737 43.013 12.6737 42.9453 12.4584C42.7678 11.8916 42.4647 11.1211 41.9701 10.3584C42.4156 9.40955 42.3539 8.4755 43.692 7.97557C43.8888 7.90174 43.8888 7.61882 43.692 7.54499C42.3539 7.04415 42.4156 6.1102 41.9701 5.16132C42.4647 4.39959 42.7678 3.62812 42.9453 3.06228C43.013 2.847 43.3187 2.847 43.3864 3.06228C43.7844 4.33277 44.8185 6.64262 47.2303 7.54499C47.4272 7.61892 47.4272 7.90184 47.2303 7.97567Z" fill="#FEA613"/>
<path d="M3.44338 40.156C3.12736 41.1647 2.30643 42.998 0.392421 43.7137C0.236136 43.7721 0.236136 43.9971 0.392421 44.0554C2.30643 44.7711 3.12726 46.6043 3.44338 47.6131C3.4968 47.7837 3.7394 47.7837 3.79282 47.6131C4.10884 46.6044 4.92977 44.7712 6.84378 44.0554C7.00006 43.9971 7.00006 43.7721 6.84378 43.7137C4.92977 42.9981 4.10894 41.1648 3.79282 40.156C3.7393 39.9854 3.4968 39.9854 3.44338 40.156V40.156Z" fill="#FDB441"/>
<path d="M6.84367 44.0551C4.92967 44.7705 4.10894 46.6037 3.79312 47.6126C3.7394 47.7834 3.4968 47.7834 3.44308 47.6126C3.30223 47.1628 3.06166 46.5513 2.66907 45.9461C3.02256 45.193 2.97362 44.4518 4.03562 44.055C4.19181 43.9964 4.19181 43.7719 4.03562 43.7133C2.97362 43.3158 3.02256 42.5746 2.66907 41.8215C3.06166 41.217 3.30223 40.6047 3.44308 40.1557C3.4968 39.9849 3.7394 39.9849 3.79312 40.1557C4.10894 41.164 4.92967 42.9972 6.84367 43.7132C6.99986 43.772 6.99986 43.9965 6.84367 44.0551V44.0551Z" fill="#FEA613"/>
</svg>
